<?xml version="1.0"?>
<svg xmlns:rdf="http://www.w3.org/1999/02/22-rdf-syntax-ns#" xmlns="http://www.w3.org/2000/svg" xmlns:cc="http://creativecommons.org/ns#" xmlns:dc="http://purl.org/dc/elements/1.1/" xmlns:svg="http://www.w3.org/2000/svg" id="svg2" viewBox="0 0 142.28 180.15" version="1.1">
  <g id="layer1" transform="translate(-180.05 -309.61)">
    <path id="path3006" transform="translate(180.05 309.61)" d="m82.969 0c-0.245 0-0.481 0.80847-0.531 1.7812-0.069 1.331-0.167 1.4103-0.438 0.375-0.317-1.214-1.177-1.5493-3.188-1.2812-0.32426 0.04324-0.54525 0.29963-0.46875 0.59375 0.07642 0.29416-2.7192 0.30074-6.2188 0-13.689-1.1765-21.786 0.8418-31.062 7.7187-5.4209 4.0192-6.4283 5.1911-5.0938 5.9375 0.32427 0.18126 0.17335 0.2358-0.3125 0.125-1.2784-0.29153-2.9462 3.2548-2.3125 4.9062 0.297 0.773 0.282 1.156-0.031 0.844-1.741-1.741-6.315 9.82-7.312 18.469-0.33366 2.8937-1.1192 6.0651-1.75 7.0625-1.6646 2.6317-2.8877 7.3854-3.4062 13.219l-0.46875 5.0938 1.9062 2.25c2.1969 2.6081 5.6807 3.5141 10.906 2.8438 3.0199-0.38742 3.5419-0.27875 2.8438 0.5625-4.9855 2.9187-8.9353 6.931-11.188 11.531-1.6719 3.5231-3.9844 6.8785-6.0938 8.8125-4.279 3.923-16.725 12.905-17.874 12.905-0.61112 0-0.875 11.04-0.875 38.13v38.12h35.781c19.672 0 35.75-0.18143 35.75-0.40625s-3.0333-4.1638-6.75-8.75c-3.716-4.58-7.107-9.31-7.531-10.53-1.399-3.73-6.004-5.48-7.781-9.15-2.9-4.75-6.286-10.83-8.594-16.41 0-1.6436-6.5399-15.457-9.5625-20.188-0.96305-1.5305-1.787-4.2464-2.0938-5.7812-0.3519 0.21748-1.2605-1.7083-2.0312-4.2812-0.77073-2.5729-1.8188-4.6815-2.3125-4.6875-0.27729-0.82304 1.4575-4.3721 1.75-5.875 1.2884-8.1546 1.3743-10.006 2.0312-11.969 0.58095-2.4387 2.3574-4.359 3.375-6.4375 1.798-4.384 0.21766 1.4149 0 2.875-1.697 2.238 0.33864 4.5908 0.9375 7.4688 0.50869 2.4804 1.9808 6.4653 3.25 8.8438 1.8528 2.9195 2.4185 7.6068 4.6875 9.4062 1.6018 2.4153 1.698 5.7765 3.5625 8.375 1.05 1.4232 1.9062 2.8565 1.9062 3.2188 0.74312 2.5771 1.7701 4.5122 2.7188 6.9062 5.6216 10.418 10.194 17.386 14.969 26.719 3.9026 4.7127 4.6866 12.16 9.1562 17.562 2.288 4.5658 5.4731 7.9045 6.3438 6.625 0.50382-0.7405 0.6572-0.69935 0.5625 0.1875-0.26866 2.5159 0.08651 3.3022 1.2812 2.8438 0.67098-0.25747 1.0213-0.13838 0.78125 0.25-0.24001 0.38837-0.23258 1.25 0.03125 1.9375 0.76143 1.9842 23.128 1.8036 23.125-0.1875-0.001-0.83497-10.893-0.92442-11.406-0.0937-0.26121 0.42263-1.0814 0.756-1.8125 0.75h-1.3438l1.1875-0.78125 1.1875-0.75-1.1875-0.125c-3.9198-0.43805-7.0254-1.5856-6.8438-2.5 0.09366-0.4715-0.54156-0.98601-1.4062-1.1562-1.9-0.37408-3.5556-2.3399-3.0625-3.625 0.19708-0.51359-0.45412-1.7882-1.4375-2.8438-0.98339-1.0555-1.7812-2.2245-1.7812-2.5938 0-0.36926-0.65503-1.1466-1.4375-1.7188-0.81694-0.59736-1.0722-1.2549-0.625-1.5312 0.42834-0.26473 0.97977-0.12474 1.25 0.3125 0.27022 0.43723 1.6191 0.72995 3 0.65625 1.381-0.0736 3.9269 0.14442 5.6562 0.46875 2.3006 0.43146 2.8315 0.35938 1.9688-0.25-0.64852-0.45807-1.7637-0.83775-2.5-0.84375-2.0114-0.0181-5.3793-1.7033-4.9062-2.4688 0.22814-0.36913-0.29729-0.6875-1.1875-0.6875-0.8902 0-1.625-0.34891-1.625-0.78125 0-0.43236-0.53899-0.78125-1.1875-0.78125-0.64853 0-1.1562-0.29331-1.1562-0.65625 0-0.36296-0.88789-1.07-1.9688-1.5625-1.0809-0.49248-1.9688-1.2867-1.9688-1.7812 0-0.61578 0.29584-0.66494 0.96875-0.125 0.54044 0.43362 2.3956 0.6867 4.125 0.5625 1.7294-0.12419 3.8541-0.2549 4.7188-0.3125l1.5938-0.125-1.9688-1.0312c-1.0809-0.57427-3.3567-1.2911-5.0312-1.5938-1.6745-0.30268-3.6091-0.8625-4.3125-1.2188-0.70339-0.35624-2.2486-1.0304-3.4375-1.5-1.189-0.4696-2.1562-1.2309-2.1562-1.7188 0-0.52443 0.5617-0.69109 1.375-0.375 0.75661 0.29407 3.3096 0.7113 5.6875 0.90625 2.3779 0.19497 5.0416 0.55304 5.9062 0.8125 0.86469 0.25941 1.3402 0.23291 1.0625-0.0625-0.27774-0.29541-3.2147-1.191-6.5312-2-5.6823-1.386-8.2812-2.6115-8.2812-3.9062 0-0.66259 8.5803-0.45516 12.562 0.3125 6.6046 1.2732-0.30249-1.1667-8.5625-3.0312-9.6258-2.1729-10.559-2.5304-9.8438-3.6875 0.30183-0.48831 0.79612-0.50506 1.375-0.0312 1.0435 0.85411 11.153 2.331 15.844 2.3125 1.7294-0.007 2.3478-0.17729 1.375-0.375-3.2193-0.65429-1.8308-1.4512 2.9375-1.6875 2.5846-0.12809 7.6424-1.0615 11.219-2.0625 3.5764-1.001 7.0077-1.9321 7.6562-2.0938 0.64852-0.16169 1.4408-0.66141 1.75-1.0938 1.0158-1.4204 4.9188 1.6339 5.1875 4.0625 0.35647 2.8634 3.4752 5.2833 2.8438 8.7812 0.33506 3.6518 1.9153 16.058 0.0625 17.812-1.2617-0.008-2.1541-0.70598-3.5625-0.96875-1.599 0.32338-4.8603 1.1434-5.625 3.8438l3.75-0.375c2.9883-0.27476 4.3666 0.76069 6.4062 3.4062 0.60513 1.217 1.3561 3.1495-0.5625 3.5-0.64851-0.24849-0.0301 0.55744 1.375 1.8125s2.5312 3.0288 2.5312 3.9375 0.3731 1.8847 0.8125 2.1562c0.43935 0.27156 0.5925 0.81627 0.34375 1.2188-0.26801 0.43364 2.861 0.71875 7.6875 0.71875h8.1562l0.0625-2.8125c0.0442-1.5597-0.44561-4.105-1.0938-5.6562-1.4103-3.3752-1.3931-3.3242-2.5625-12.75-0.50955-4.1073-1.2503-8.5403-1.6562-9.875-0.78869-2.5928 1.2888-16.758 3.5625-24.312 0.64462-2.1419 1.7436-8.4963 2.4688-14.125l1.3125-10.25-2.03-4.022c-1.1273-2.22-3.2519-5.3197-4.7188-6.875-1.0336-1.1059-1.6169-3.145-3.0312-3.625-0.65334 0-2.2126-0.88527-3.4688-1.9688s-2.9309-2.1636-3.6875-2.4062c-0.75661-0.2427-1.375-0.80698-1.375-1.25 0-0.443 1.1574-0.07527 2.5625 0.8125 1.4051 0.88776 3.7993 2.3105 5.3125 3.1562 20.63 12.094 8.673 36.745 6.2188 56.688-0.56223 2.7373-0.68296 6.7696-0.3125 11 0.32182 3.675 0.56305 7.8986 0.53125 9.375-0.0319 1.4764 0.40401 3.6011 0.96875 4.7188 1.058 2.0939 3.0013 9.4679 3.2188 12.25l0.125 1.5625 4.8438 0.21875 4.8438 0.25v-60.844l-3.28-3.03c-1.8013-1.663-3.5749-3.0312-3.9375-3.0312-0.36259 0-0.40592-3.4945-0.125-7.7812l0.5-7.8125-2-3.4062c-3.2288-5.4769-10.766-11.738-19.375-16.156l-4.2188-2.1875 0.53125-11c0.68014-14.036 0.81215-14.531 3.6875-14.531h2.2812v-3.9688c0-2.371-0.32633-3.8124-0.78125-3.5312-0.41968 0.25937-0.96415-0.51211-1.2188-1.7188-0.6493-3.0772-1.4618-4.4038-3.2188-5.3125-1.2592-0.65127-1.373-1.1799-0.75-2.9375 1.05-2.9622-1.4541-8.4098-4.3125-9.4062-1.1512-0.40131-2.5005-1.4875-3-2.4375l-0.90625-1.75 0.34375 1.7812c0.18714 0.97338 0.017 1.5548-0.375 1.3125-0.39203-0.24228-0.71875-0.76249-0.71875-1.1875 0-1.5732-5.1982-7.682-8.0625-9.4688-1.6276-1.0153-2.5941-1.979-2.1562-2.125 1.4435-0.48116 6.0201 2.9385 8.25 6.1562 1.2052 1.7391 2.3517 3.0232 2.5312 2.8438 1.041-1.041-4.7355-6.9375-9.4375-9.625-4.126-2.3603-5.46-3.5316-5.813-5.2212-0.392-1.8774-2.25-3.7188-3.75-3.7188zm-22.219 3.4062h2.375l-1.7812 1.4375c-0.97882 0.79263-1.3705 1.4375-0.875 1.4375 0.63611 0 0.68008 0.43157 0.125 1.4688-0.43235 0.80784-0.58552 1.6957-0.3125 1.9688 0.5611 0.56116 0.30968 0.55694-1.1562-0.03125-0.797-0.3197-0.806-0.6668-0.063-1.5625 1.169-1.4078-2.681-0.9205-4.468 0.5625-0.597 0.4946-1.539 0.6967-2.094 0.4687-0.636-0.2611-0.364-0.5987 0.75-0.9374 0.97277-0.2957 1.7812-0.83565 1.7812-1.1875s0.77723-0.73664 1.75-0.875c1.0333-0.14698 1.7386-0.77308 1.6875-1.5-0.06171-0.87909 0.60711-1.25 2.2812-1.25zm-6.75 1.875c0.15461-0.02681 0.25-0.00394 0.25 0.0625 0 0.8937-6.422 5.6563-7.625 5.6563-0.56992 0-1.0372 0.61839-1.0312 1.375 0.0094 1.0716 0.16107 1.1433 0.6875 0.3125 0.77977-1.2306 1.7048-0.17944 1.3125 1.5-0.69127 2.9592-1.4608 4.6875-2.0938 4.6875-0.38192 0-0.6875 0.42423-0.6875 0.96875 0 0.54451-0.66154 1.4021-1.4688 1.9062-0.841 0.525-1.423 1.703-1.344 2.75 0.07567 1.005-0.16093 2.248-0.53125 2.75-0.39117 0.5302-0.32385 1.1095 0.15625 1.4062 1.3815 0.8538-0.58721 3.5625-2.5938 3.5625-2.4253 0-5.4164 3.2437-4.7812 5.1875 0.38585 1.1809 0.32312 1.2723-0.3125 0.375-0.64456-0.90993-0.93137-0.69637-1.3438 1.1562-0.85206 3.8278-1.0318 4.0379-1.0938 1.1562-0.03344-1.5566 0.68426-3.9434 1.6562-5.5 0.94493-1.5132 1.8007-3.2385 1.9062-3.8438 0.10558-0.60524 0.58676-1.3622 1.0625-1.6562 0.4757-0.29402 0.66594-1.0733 0.40625-1.75-0.935-2.436 1.136-7.433 3.969-9.593 1.5096-1.1514 2.75-1.7319 2.75-1.2812 0 0.45069-0.77486 1.2684-1.6875 1.8125-1.3406 0.79922-4.625 6.6164-4.625 8.1875 0 0.9868 2.241-2.0086 2.7812-3.7188 0.33509-1.0607 1.447-2.6504 2.4688-3.5312 1.6426-1.416 2.4457-5.861 1.0625-5.8438-1.1943 0.0148-4.6677 2.9366-4.1562 3.5 0.32775 0.36097 0.11091 0.38581-0.5 0.03125-0.8706-0.50527-0.53504-1.1538 1.5312-3l2.625-2.375-2.3125 0.5625-2.3125 0.5625 1.9688-1.375c1.0809-0.76302 2.4499-1.8693 3.0312-2.4375 1.331-1.3008 5.625-3.5416 5.625-2.9375 0 0.24802-0.99856 1.3547-2.1875 2.4688-1.189 1.1141-1.6173 1.6784-0.96875 1.25 2.82-1.8627 7.324-4.1559 8.406-4.3436zm28.875 0 2.375 2.75c1.3139 1.5071 2.9046 2.891 3.5312 3.0938 0.92188 0.29826 0.89213 0.46071-0.1875 0.875-0.91265 0.35021-1.7346-0.10979-2.625-1.4688-0.983-1.4992-1.476-1.7142-1.969-0.9372-0.731 1.1522-0.741 1.1272-0.969-2.0313zm-19.281 0.5313c0.27432-0.014336 0.5875-0.01125 0.90625 0 2.7768 0.09794 2.7564-0.05593 0.5625 3.0625-2.6978 3.8346-3.8945 4.5555-6.7188 4.1562-1.4955-0.21138-2.3907-0.05492-2.125 0.375 0.50892 0.82345 0.10413 1.0104-0.625 0.28125-0.25842-0.25844-0.27836-0.93748-0.0625-1.5 0.21586-0.56251 0.00012-1.2727-0.46875-1.5625-0.46881-0.28977-0.6281-0.84047-0.375-1.25 0.2531-0.40952 0.77798-0.53435 1.1875-0.28125 0.40951 0.25309 0.56149 0.74146 0.34375 1.0938-0.44787 0.72467 4.1439 2.8249 4.7812 2.1875 0.22672-0.22673 0.52553-1.4197 0.6875-2.6562 0.16196-1.2366 0.3565-2.4401 0.4375-2.6562 0.081-0.21617 0.12395-0.5826 0.09375-0.84375-0.02262-0.19586 0.55206-0.36324 1.375-0.40625zm11.625 0.03125c0.29133-0.019261 0.70969 0.24094 1.25 0.78125 0.73399 0.73399 1.6659 1.1201 2.0625 0.875 1.1139-0.6884 3.2188 0.40203 3.2188 1.6562 0 1.1954 2.258 5.0395 3.4375 5.875 1.3814 0.97853 1.0067 6.5828-0.4375 6.5938-0.72608 0.0055-1.5875 0.27501-1.9062 0.59375-0.31874 0.31875 0.33752 0.5625 1.4375 0.5625 2.6548 0 4.0235-1.7909 3.5938-4.7188-0.21904-1.4924-0.03125-2.2677 0.5-2.0938 0.46726 0.15303 0.95767 1.4012 1.0938 2.7812 0.1361 1.38 0.5644 2.3124 0.96875 2.0625 0.98072-0.60607 0.95135-4.0431-0.0625-5.9375-0.50494-0.94344-0.53454-1.5-0.0625-1.5 0.41843 0 1.0048 0.69153 1.2812 1.5625 0.27644 0.87097 0.80646 1.3918 1.1875 1.1562 0.93006-0.57481 3.7619 1.9087 5.0938 4.4375l1.0938 2.0312-1.9375-0.375c-2.8367-0.54226-2.4446 0.18044 3.1875 5.8125 5.8329 5.8329 5.9656 6.15 2.75 6.375-2.4715 0.1729-3.5103 0.79831-7.0938 4.3438-2.7483 2.7191-2.8664 2.6927-4.1875-0.40625l-1.0938-2.5312 0.21875 4.4062c0.12592 2.4251 0.97079 5.941 1.875 7.8125s1.6562 3.7881 1.6562 4.2812c0 0.49319 1.0763 2.5547 2.4062 4.5625 4.5555 6.8776-0.38064 11.869-5.5625 5.625-0.53078-0.63954-0.65182-1.1562-0.25-1.1562 3.4502 0 1.7517-7.3112-2.7812-11.938-3.8685-3.9481-3.9592-4.1374-2.375-6.0938 1.4816-1.8298 2.1643-9.4688 0.84375-9.4688-0.34555 0-0.50577 1.1261-0.34375 2.5312 0.733 6.3567-2.1253 8.4084-6.1875 4.4375l-2.5-2.4375-5.6562 0.3125c-4.5975 0.23215-6.2856 0.70372-9 2.5-3.9855 2.6375-3.7034 3.7941 0.34375 1.4062 2.3557-1.3899 3.8248-1.6376 8.7188-1.4062 5.9612 0.28186 9.155 1.2812 4.0938 1.2812-1.732 0-5.2997 1.322-9.5938 3.5312l-6.875 3.533-2.687-1.125c-2.7633-1.1546-3.5863-0.55462-1.5625 1.125 0.62279 0.5169 0.92423 1.4143 0.6875 2.0312-0.48543 1.265 0.9691 1.5567 1.7188 0.34375 0.85721-1.387 3.947-0.83441 6.6875 1.1875 1.465 1.0809 3.2024 1.9435 3.875 1.9375h1.2188l-1.1875-0.84375c-0.88274-0.62637-0.31373-0.72264 2.1875-0.4375 1.4711 0.13994 5.0045-0.25951 6.125-2.2188 0.13632-0.85684 0.63786-1.6918 1.0938-1.8438 1.6469-0.54895 0.79067-2.3577-1.5-3.1562-4.2354-1.4765-10.096 0.34124-7.9688 2.4688 0.64235 0.64235 0.875 0.63015 0.875-0.0625 0-0.51881 0.36514-0.96875 0.84375-0.96875s0.68636 0.53898 0.4375 1.1875c-0.33813 0.88113 0.10825 1.1875 1.8125 1.1875 1.5957 0 2.4296-0.48574 2.7812-1.5938 0.27644-0.87097 0.83641-1.3926 1.2188-1.1562 1.1925 0.73699-0.08637 2.6554-2.5938 3.9062-2.7613 1.3775-4.9942 1.5593-5.6875 0.4375-0.28716-0.46464 0.09054-0.59058 0.9375-0.28125l1.4062 0.53125-1.5312-1.75c-0.901-1.025-2.115-1.621-2.937-1.406-2.1476 0.56162-1.7472 0.11637 2.25-2.5312 4.38-2.9012 5.577-3.0107 9.2188-0.6875 5.718 3.6477 0.86441 11.411-6.7812 10.844-1.2584-0.09339-2.1875 0.25742-2.1875 0.8125 0 1.4045 8.0665 0.30199 11.844-1.625 1.6802-0.85716 3.7479-1.5625 4.5938-1.5625s1.7194-0.45956 1.9375-1c0.23687-0.58699 0.4004-0.41556 0.4375 0.40625 0.03413 0.7566 0.41141 1.375 0.84375 1.375 1.786 0 0.59642 2.8444-1.6562 3.9375-2.2497 1.0916-3.4694 2.8681-7.1875 10.594-0.62422 1.297-2.8065 5.3002-4.8438 8.875-0.3434 0.60818-5.175 11.504-2.4062 6.5938 0.43965-1.729 4.0675-5.0574 3.9375-7.125 1.456-2.2108 2.4458-4 2.1875-4-0.25833 0 0.13451-0.68175 0.875-1.5 0.7405-0.81823 1.5834-2.4803 1.9062-3.6875 0.32286-1.2072 1.1251-2.367 1.75-2.5625 0.62493-0.19544 0.85176-0.06242 0.53125 0.28125-0.81973 0.87896 0.88918 2.7122 2.0938 2.25 1.3391-0.51384 3.1134 1.7256 2.375 3-0.32411 0.55937 0.33781 0.06395 1.4688-1.125 1.1309-1.189 2.7496-2.1875 3.5938-2.1875h1.5312l-0.4375 3.1562-0.40625 3.1562 1.4688-0.03125c1.1531-0.0094 1.2552-0.14987 0.40625-0.6875-1.526-0.967-0.503-4.801 1.279-4.782 0.74837 0.0076 3.2302 1.7319 5.5 3.8438l4.125 3.8438-0.0312-1.6875c-0.0318-1.4755-3.3892-4.7702-6.875-6.75-0.56291-0.3197-0.78156-1.1413-0.5-1.875l0.5-1.3125 3.9375 2.125c6.3198 3.4397 8.4142 10.235 5.125 16.656-0.75374 1.4716-1.375 3.1271-1.375 3.6562 0 0.52916-0.49047 1.3431-1.0938 1.8438-0.60329 0.50068-1.344 2.1584-1.625 3.6562-1.1465 5.2161-8.1698 7.0984-15.281 7.0625-2.4256-0.27026-6.1605-0.1323-8.3125 0.28125-2.6994 0.51873-4.4032 0.47036-5.5-0.125-0.8744-0.47464-3.0206-0.8924-4.75-0.9375-1.7294-0.04509-4.1392-0.77345-5.375-1.5938l-2.25-1.4688 0.34375-4.2188c0.19178-2.3127 0.05875-3.9338-0.28125-3.5938-0.34001 0.33999-0.80127 2.6708-1.0312 5.1562l-0.40625 4.5h2.0938c1.1456 0 1.8614 0.23236 1.5938 0.5-3.1578 3.1578 23.07 5.377 30.281 2.5625 4.5401-1.772 4.8698-0.75543 0.90625 2.875-3.0047 2.7522-4.7084 3.5298-10.75 4.9688-4.9668 1.183-9.1548 1.1043-11.562-0.25-2.7015-1.7954-8.015-1.5024-9.4375-4.1875-0.25344-1.1474-1.0795-0.67548-2-1.1875-0.55185-0.51985-2.0953-1.8301-3.4375-2.9062-2.5508-1.0394-1.8405-5.1454-3.9375-5.875-1.5326-0.63032-2.1142-2.1631-3.375-2.8125-0.55-0.016-2.284-1.681-3.84-3.716l-2.844-3.719-0.5-9.2188c-0.32828-5.8904-0.24397-9.25 0.25-9.25 0.81805 0 1.8729 3.1262 1.4688 4.375-0.61561 1.9024 3.0009 11.709 5.0312 13.625 1.194 1.1269 2.1875 2.7908 2.1875 3.7188 0 1.5801 1.8947 3.103 3.4375 2.75 0.3773-0.08631 0.47439 0.3963 0.21875 1.0625-0.25565 0.6662-0.13753 1.1875 0.28125 1.1875 1.0925 0 0.94354-1.5994-0.40625-4.1875-0.64357-1.234-0.99265-2.533-0.78125-2.875 0.2114-0.34204-0.17031-0.83533-0.84375-1.0938-0.67344-0.25843-1.0411-0.78632-0.8125-1.1562 0.22862-0.36992-0.19276-1.3342-0.9375-2.1562-1.5764-1.74-3.5421-5.8641-3.0312-6.375 0.19288-0.19288 0.58053 0.32691 0.84375 1.1562 0.26322 0.82934 1.8719 3.411 3.5938 5.7188 1.7218 2.3078 3.125 4.902 3.125 5.7812v1.5938l1.187-1.157c1.546-4.2733-1.6001-5.5901-1.9688-7.8438-0.23288-1.8145-1.865-2.3666-2.3438-3.8438 0-0.73197-0.33357-1.6461-0.75-2.0625-1.371-1.371-1.953-15.791-0.781-19.344l1.0312-3.1875-1.3125-0.75c-1.8734-1.0484-1.656-2.571 0.71875-5.125l2.031-2.218-0.344-3.531c-0.38306-3.7033 0.27125-7.6173 1.2188-7.2812 0.30477 0.10808 0.57105-0.05074 0.59375-0.375 0.02266-0.32426 0.98996-1.6192 2.1562-2.875 2.0293-2.2014-0.0053-0.46611 0.46875-3.3125 0.29448-1.2532 0.67449-3.3016 0.875-4.5625 0.53588-3.3701 3.2563-4.1217 9.2188-2.5625 1.6023 0.41901 2.1562 0.25786 2.1562-0.5625 0-0.60872-0.57117-1.0601-1.2812-1-0.71007 0.06004-1.3549-0.22391-1.4375-0.65625-0.08257-0.43234-0.02261-0.53915 0.15625-0.21875 0.17885 0.3204 0.85498 0.08253 1.4688-0.53125 1.3791-1.3791 1.4452-2.2625 0.125-1.5938-0.54043 0.27375-0.38161-0.0048 0.375-0.625 2.3458-1.9228 1.5111-2.3847-1.3125-0.71875-3.3816 1.9952-5.0135 0.91977-2.4688-1.625 0.72725-0.72725 0.84423-1.49 0.375-2.2188l-0.717-1.126-0.813 1.1875c-0.44407 0.64851-1.021 2.1458-1.2812 3.3438-0.55471 2.553-1.7636 3.55-2.625 2.1562-0.61035-0.98758 0.03035-1.9568 4.1562-6.5938 1.1922-1.3398 1.9649-1.9298 1.75-1.2812-0.21486 0.64852-0.03035 1.7265 0.40625 2.375l0.813 1.1875 1.469-1.7812c0.817-0.9728 1.846-1.7813 2.281-1.7813 0.4351 0 0.93033-0.38474 1.0938-0.875 0.07217-0.21653 0.2002-0.33219 0.375-0.34375zm-1 2.3125c-0.09037-0.00638-0.1773 0.029502-0.28125 0.09375-0.46256 0.28588-0.48995 1.157-0.0625 2.2812 0.42984 1.1307 0.38139 2.1499-0.09375 2.625-1.1905 1.1905 0.07571 4.7651 2.2812 6.5 2.036 1.6015 3.4147 2.0116 3.25 0.96875-0.28643-1.814 0.2472-3.2235 1.375-3.6562 1.6178-0.62081 3.4375 0.85359 3.4375 2.7812 0 0.81175 0.34044 1.4688 0.78125 1.4688 1.2942 0 0.18336-4.0774-1.5938-5.8438-0.89862-0.89323-2.1086-2.3121-2.6875-3.1562l-1.0625-1.5312 0.21875 1.9375c0.11339 1.0604-0.42801 3.0597-1.1875 4.4688l-1.375 2.5625-1.375-2.125c-0.95819-1.4624-1.1262-2.2288-0.5-2.4375 0.50138-0.16712 0.72284-0.57693 0.5-0.9375-0.223-0.361 0.071-1.135 0.656-1.719 0.673-0.673 0.853-1.642 0.469-2.6255-0.334-0.8553-0.626-1.1029-0.657-0.5625-0.0807 1.4354-1.625 1.1974-1.625-0.25 0-0.50554-0.19764-0.82461-0.46875-0.84375zm-22.719 4.9687c1.0088-0.09959 2.1371 0.31637 3.3438 1.25 1.0735 0.83061 1.3057 2.2966 0.375 1.8438l-0.5 1.375-0.5 1.5 1.1875-1c0.66887-0.55515 1.4091-0.84089 1.625-0.625 0.57309 0.57309-0.48893 2.9688-1.3125 2.9688-0.3861 0-0.6875 1.92-0.6875 4.25 0 3.6789-3.0283 10.461-3.125 7-0.01439-0.51492 0.24946-1.0997 0.59375-1.3125 0.3443-0.21279 0.5809-2.8171 0.5-5.7812-0.10413-3.8151 0.18247-5.8464 1.0312-6.9375l1.157-1.469c-0.03292-0.01737-0.05804-0.0092-0.09375-0.03125-0.93721-0.57923-5.453 6.0805-5.7812 8.5312-0.2883 2.1528-2.0231 4.5458-2.9062 4-0.32763-0.20249-0.80208 1.0414-1.0312 2.75-0.45168 3.3675-1.8385 5.2504-4.1875 5.6562-0.82129 0.14189-1.9926 0.71099-2.5938 1.2812-0.60113 0.57026-1.3601 2.156-1.6875 3.5312l-0.59375 2.5-0.062-3.218c-0.08252-3.3015 1.081-4.9964 4.1562-6.0938 0.81849-0.29207 1.3118-0.7194 1.0938-0.9375-0.21809-0.21809-1.3886-0.02072-2.5938 0.4375l-2.1875 0.84375 1-1.2188c0.55-0.663 1.467-1.219 2.032-1.219 1.6177 0 3.5-2.2732 3.5-4.25 0-0.99168 0.68072-2.7 1.5312-3.7812 0.85054-1.0813 1.3366-2.1947 1.0625-2.4688-0.27407-0.27407-0.1263-0.5 0.34375-0.5 0.47006 0 1.0893-1.0429 1.375-2.3438 0.2857-1.3008 0.86515-2.1634 1.2812-1.9062 1.1042 0.68244 3.0312-1.1907 3.0312-2.9375v-1.5l-1.75 0.84375-1.7812 0.875 1.4375-1.1875c0.536-0.431 1.114-0.658 1.719-0.718zm3.6875 3.0625c0.01386 0.0073 0.01788 0.02475 0.03125 0.03125l0.031-0.094zm-17.813 1.312c0.03156 0.0028 0.06768 0.03643 0.09375 0.0625 0.20857 0.20858-0.13482 1.4062-0.78125 2.6562-0.64644 1.2501-1.3075 3.4007-1.4688 4.8125-0.16122 1.4118-0.80816 2.9144-1.4375 3.3125-0.62936 0.39811-0.82791 0.71275-0.4375 0.71875 0.39042 0.0066-0.06281 0.68718-1 1.5-1.0472 0.90825-1.5191 1.9674-1.2188 2.75 0.27828 0.72518 0.08445 1.2812-0.4375 1.2812-0.50405 0-0.70471 0.34891-0.4375 0.78125 0.2672 0.43234 0.16952 0.78125-0.21875 0.78125-1.0704 0-0.62877-5.7279 0.46875-6.0938 0.5264-0.17546 0.74439-0.63583 0.5-1.0312-0.24438-0.39541-0.05161-0.71875 0.40625-0.71875s0.8125-0.53898 0.8125-1.1875-0.42832-1.1845-0.96875-1.1875c-0.54043-0.0038 0.31421-1.2409 1.9062-2.75s3.1214-3.4774 3.4062-4.375c0.24929-0.78544 0.59159-1.332 0.8125-1.3125zm53.406 6.1875c-0.86737 0.42303-1.9871 1.5329-2.625 2.6562l-7.3125-0.0625c-4.9715-0.02792-6.4592 0.14267-4.5938 0.53125 6.8015 1.4168 16.902-0.75433 14.531-3.125zm-39.531 1.062-0.469 2.656c-0.25754 1.4592-0.5194 3.425-0.5625 4.3438l-0.0625 1.6562-0.6875-1.9688c-0.529-1.494-0.611-1.1-0.343 1.657 0.21 2.166-0.049 4.149-0.625 4.937-1.988 2.718-1.083-7.444 0.938-10.531zm42.781 2.1562c-0.69015 0.07733-1.7713 0.43142-2.75 0.9375-1.6937 0.87583-4.689 1.241-10.469 1.25-4.453 0.0066-8.4988 0.27611-9 0.59375-1.7799 1.7135 24.266-0.72448 22.75-2.75-0.12604-0.04201-0.3012-0.05703-0.53125-0.03125zm-29.594 7.5c-0.35437-0.0076-0.87314 0.24902-1.4688 0.8125-0.78307 0.74084-2.3533 1.9953-3.5 2.8125-1.1467 0.81717-2.0938 1.8156-2.0938 2.2188 0 0.40317 0.93082 0.01519 2.0625-0.875 1.374-1.064 3.17-1.0072 4.5938-2.4062 1.2353-1.365 1.1859-2.5458 0.40625-2.5625zm44.781 1.9688c0.7888 0.0085 1.49 0.18964 1.4062 0.53125-0.0575 0.2345 0.69537 1.9438 1.6562 3.7812 0.96088 1.8375 1.5576 3.3438 1.3438 3.3438-0.21385 0-0.9085-0.98326-1.5312-2.1875-0.62274-1.2042-2.022-2.6909-3.125-3.2812s-1.8349-1.3478-1.625-1.6875c0.2103-0.34022 1.0862-0.50845 1.875-0.5zm-8 1.4375c1.1774-0.0514 1.9434 0.38114 2.2188 1.2812 0.72438 2.3677 4.4891 10.016 5.1562 10.469 1.4014 0.95118 0.63349 13.022-0.78125 12.281-0.28909-0.15136-1.1184 0.36014-1.875 1.1562l-1.375 1.4688h4.5l-0.375 1.9688c-0.68635 3.5904-8.8438-0.38939-8.8438-4.3125 0-1.1881-1.0546-3.6912-2.3438-5.5938-2.464-3.6363-3.0595-5.825-1.4062-5.2188 0.54043 0.19816 0.9062 0.74436 0.8125 1.1875-0.25475 1.2052 3.5125 1.8986 5.25 0.96875 1.8935-1.0134 3.9691-3.911 3.9375-5.5-0.0172-0.86515-0.24848-0.75778-0.875 0.375-2.2841 4.1298-4.8943 5.9543-5.6562 3.9688-0.29216-0.76139-0.0426-0.97965 0.71875-0.6875 0.6265 0.24041 1.125 0.0411 1.125-0.4375 0-0.47861-0.62776-0.875-1.4062-0.875-1.5852 0-5.6462-1.7282-5.6562-2.4062-0.0034-0.24122 1.475-0.78021 3.3125-1.1875 2.2988-0.50957 4.0473-2.2778 4.0312-3.375 0.50281 1.2219 0.34747 2.5918-0.875 3.5625l-1.372 1.093 1.9688-0.21875c1.631-0.18227 1.9933-0.69283 2.1875-3l0.24-2.781-3.34-1.469-3.3438-1.5 1.5312-0.59375c0.97479-0.38124 1.8248-0.59416 2.5312-0.625zm6.5938 1.5938c0.49079-0.16138 2.4955 2.0576 3.5 4 0.89963 1.7396 1.55 2.1408 2.7812 1.75l1.5938-0.5-0.84375 1.5938c-0.63211 1.1811-0.60339 1.6745 0.125 1.9688 0.77371 0.31245 0.77841 0.41965 0 0.46875-0.54043 0.03413-1-0.12757-1-0.34375s-0.0147-0.55044-0.0312-0.75c-0.0166-0.19954-0.98394-1.3908-2.1562-2.6562-2.9159-3.1476-4.0938-4.6945-4.0938-5.3125 0-0.12808 0.0549-0.1957 0.125-0.21875zm-60.029 0.344l0.3125 1.5625c0.17359 0.84763-0.38621 2.7319-1.25 4.2188-0.86378 1.4868-1.2277 2.5065-0.8125 2.25 1.0336-0.6385 1.2729 7.0534 0.28125 8.9062-0.43307 0.8092-1.2734 1.4688-1.875 1.4688-0.60161 0-1.2398 0.61839-1.4375 1.375-0.19772 0.7566-0.41855 0.96919-0.46875 0.4375-0.05015-0.53168 0.47108-2.3813 1.1562-4.0938 0.68518-1.7124 1.0777-3.7489 0.875-4.5312-0.31197-1.2042-0.3603-1.1755-0.4375 0.21875-0.1195 2.1583-2.8277 4.5865-4.4375 3.9688-1.5963-0.61257-0.88325-3.5902 1.25-5.125 0.86765-0.62424 1.5-2.0244 1.5-3.3125 0-4.2818 3.0716-8.5147 3.2188-4.4375l0.0625 1.75 1.0312-2.3125zm49.656 0.6875c1.6274 0.0068 3.0756 0.99735 3.875 2.25-0.22394-0.14387-0.54798-0.25-1-0.25-2.4568 0-5.2252 1.788-4.375 2.8125 0.60901 0.7338 0.31188 0.93045-1.1562 0.84375-3.0238-0.17861-2.174-4.1161 1.1562-5.375 0.498-0.18825 1.0137-0.28328 1.5-0.28125zm-64.312 4.124 1.125 2.188c1.4752 2.8434 1.4655 2.969-0.78125 7.75-1.0541 2.243-2.0797 5.4894-2.25 7.2188-0.20938 2.1266-0.3481 2.4309-0.4375 0.9375-0.07267-1.2145-0.44033-2.0425-0.8125-1.8125-0.67493 0.41714 0.0086-4.0184 1.0625-7l0.53125-1.5625-1.2188 1.5312c-0.68382 0.83923-1.25 1.1106-1.25 0.625 0-0.48554 1.0467-1.6389 2.3438-2.5625 1.4776-1.0522 2.3384-2.3003 2.2812-3.375l-0.093-1.719-0.375 1.563c-0.56365 2.3433-1.6898 3.2098-2.25 1.75-0.57241-1.4917-2.6875-0.89688-2.6875 0.75 0 0.62812-0.39407 0.90292-0.84375 0.625-0.53537-0.33087-0.63431 0.24952-0.28125 1.6562 0.35895 1.4302 0.27368 1.968-0.28125 1.625-0.45847-0.28333-0.97401-0.26445-1.1562 0.0625-0.1823 0.32696-0.22693 0.16919-0.09375-0.375s-0.07196-1.8626-0.46875-2.9062c-0.52682-1.3856-0.41737-2.129 0.40625-2.8125 0.62028-0.51483 0.92444-1.2729 0.6875-1.6562-0.23692-0.38336-0.08861-0.6875 0.34375-0.6875 0.43233 0 1.0097 0.37309 1.2812 0.8125 0.27156 0.43941 0.8149 0.60528 1.1875 0.375s0.88468-0.0644 1.1562 0.375c0.85723 1.387 1.8003 0.88415 2.3438-1.2812zm8.0625 1.5938c0.79157-0.01806 0.47422 1.3185-1.4062 3.2812-1.1285 1.1779-2.0625 2.5457-2.0625 3.0625 0 0.51678-0.3489 0.96875-0.78125 0.96875-1.678 0-0.64241-3.3176 1.75-5.6562 1.1588-1.1328 2.0251-1.6454 2.5-1.6562zm-7.125 9 1.4375 2.6875c0.79088 1.4756 1.4375 3.0348 1.4375 3.4688 0 0.43391-0.34891 0.78125-0.78125 0.78125-0.43235 0-0.78125-0.69208-0.78125-1.5312 0-0.83918-0.40711-1.754-0.90625-2.0625-0.52705-0.32572-0.70001-0.22531-0.40625 0.25 0.27821 0.45017-0.01249 1.247-0.65625 1.7812-1.4109 1.1709-1.4671 0.52207-0.25-2.8438zm52.125 4.7812c0.72425-0.13426 1.6665 0.75249 3.5938 2.75l2.8438 2.9375-2.7188 1.3125-2.7188 1.2812-1.125-1.1562c-0.63257-0.63257-1.1562-1.4793-1.1562-1.9062 0-0.42699-0.3489-0.57971-0.78125-0.3125-1.0964 0.67763-0.98955-0.08206 0.40625-2.7812 0.66932-1.2943 1.0929-2.0206 1.6562-2.125zm-19.25 10.406-1.625 1.875c-1.3708 1.5531-1.625 2.8879-1.625 8.1875 0 7.8258 1.0167 7.2762 1.625-0.875 0.24743-3.3155 0.70206-6.7291 1.0312-7.5938zm19.969 2.75c-2.161 0-8.3125 10.078-8.3125 13.625 0.10784 5.4332 2.2534-2.9959 2.6875-5.0938 0.47042-1.0599 1.3962-1.2075 5.0625-0.875 4.1749 0.37857 14.098-1.0269 13.25-1.875-0.20843-0.20843-2.5694 0.04127-5.2188 0.5625-5.7774 1.1366-7.249 0.50226-1.875-0.8125 8.7832-2.1489 11.25-1.7915 11.25 1.6875 0 0.83728 0.34347 1.3138 0.75 1.0625 0.7735-0.47805-0.45781-5.0457-1.4062-5.2188-4.9012-0.89442-10.979-0.29754-14.125 1.375-5.6456 3.0018-6.8227 1.8119-2.6875-2.6875 1.0141-1.1034 1.2406-1.75 0.625-1.75zm-45.875 4.7812c0.03354-0.02674 0.11618 0.03491 0.25 0.15625 1.164 1.0554 1.0842 4.4783-0.125 5.6875-0.64978 0.64978-0.87677 1.1875-0.5 1.1875 0.37675 0 1.0887-0.40119 1.5625-0.875 0.62457-0.62457 0.99991 0.08571 1.4062 2.5625 0.30824 1.8789 1.0973 4.0108 1.75 4.75-1.2422 1.3376 2.7647 4.7605 2.875 5-0.6287 1.6055 0.34631 3.4857 2.4062 5.4688 1.652 1.5132 2.6802 2.75 2.2812 2.75-0.39895 0-2.1141-1.4177-3.7812-3.125-1.6672-1.7073-3.4008-3.0235-3.875-2.9375-0.22646 0.04108-0.40696-0.02863-0.53125-0.15625h-0.03125c-0.01978-0.02244-0.01525-0.06763-0.03125-0.09375-0.08412-0.13733-0.13517-0.31611-0.09375-0.53125 0.09864-0.51211-0.99657-3.3346-2.4375-6.2812-2.9038-5.9382-4.0968-10.469-2.75-10.469 0.46782 0 0.64666-0.52976 0.40625-1.1562-0.30693-0.79986-0.04666-0.96668 0.84375-0.625 0.93585 0.35912 1.1033 0.16752 0.625-0.65625-0.22276-0.38369-0.3059-0.61169-0.25-0.65625zm56.406 3.4688c-1.1685 0.06681-2.5255 0.33792-3.7812 0.78125-3.2568 1.0894-8.2733 1.8135-11.125-0.375-2.0911 0-0.51367 2.2952 1.7812 2.5938 1.4051 0.18299 3.2603 0.17961 4.125 0s3.7862-0.52913 6.5-0.78125 5.1215-0.76545 5.3438-1.125c0.50715-0.82058-0.89632-1.2051-2.8438-1.0938zm-71.625 1.0938c0.07897-0.01256 0.1231 0.11875 0.125 0.375 0.0027 0.35942-1.2368 4.7271-2.75 9.7188-1.5132 4.9916-2.75 9.7214-2.75 10.531 0 0.80991-0.42832 1.3893-0.96875 1.2812-0.63983-0.12796-0.92444 0.62066-0.8125 2.1562 0.10863 1.4902-0.06171 1.9982-0.46875 1.3438-0.46754-0.75174-0.88623-0.4201-1.5 1.1875-2.4711 6.4725-2.6089 7.777-1.2812 11.688 2.0026 5.8984 5.0347 12.216 5.6875 11.812 0.32362-0.20001 0.65065 0.37732 0.71875 1.2812 0.0681 0.90392 0.43378 1.8699 0.8125 2.125 0.3787 0.25508 1.6251 1.8721 2.7812 3.5938 1.1562 1.7217 2.0938 2.8467 2.0938 2.5 0-0.34673-1.0675-2.2418-2.4062-4.1875-1.3387-1.9458-2.3373-3.6667-2.1875-3.8125 0.24339-0.23691 7.9784 9.1868 10.844 13.219l1.125 1.5938-1.4688-0.5625-1.4688-0.5625 1.4062 1.5625c0.78385 0.86614 1.8235 1.4972 2.3125 1.4062 0.48895-0.0909 0.78522 0.33442 0.65625 0.9375-0.12897 0.60306 0.72363 2.1093 1.9062 3.3438 2.751 2.8714 2.1581 2.859-1.875-0.0625-5.767-4.1776-14.549-15.93-19.312-25.844l-3.283-6.81v-5.125c0-4.8734 3.0383-13.495 5.2812-15 0.37608-0.25241 1.5294-3.8039 2.5625-7.875 1.4062-5.5415 3.6659-11.725 4.2188-11.812zm72.562 4.1562c-3.9748-0.07606-12.688 2.9964-12.688 5.0625 0 0.70872 1.2315 0.21343 5.375-2.125 3.3098-1.8679 4.95-2.3276 6.9688-2 1.5533 0.25208 2.4255 0.12316 2.1562-0.3125-0.24784-0.40102-0.89524-0.60745-1.8125-0.625zm13.875 2.375c0.865-0.16982 2.6176 1.7105 4.0312 4.5312 1.5426 3.078 2.2241 11.108 2.8438 33.188 0.20197 7.1976 0.77241 15.665 1.25 18.844 1.1368 7.9603 1.6439 17.215 0.40625 24.844-0.0277 0.84773-0.0775 1.8227-0.65625 2.6875-1.0947 1.3947-1.0449 1.4184-2.25 0-1.2184-1.2911-2.9282-6.0405-3.3438-9.2812-0.54261-3.778-3.815-7.4696-2.9062-11.844-1.139-12.544-7.6166-53.946 0.1875-62.5 0.0911-0.2707 0.23789-0.42956 0.4375-0.46875zm-47 2.2188c-0.85833 0-0.71647 2.1701 0.25 3.7188 0.33726 0.54043 1.6185 1 2.8438 1 1.2551 0 2.4326 0.5232 2.6875 1.1875 0.67673 1.7635 2.0061 1.4096 1.5312-0.40625-1.0983-2.6835-6.3463-1.4835-6.5312-4.3438 0-0.63331-0.35162-1.1562-0.78125-1.1562zm42.156 6.375c0.31972-0.06322 0.48502 0.10326 0.4375 0.53125-3.7417 4.0401-7.9845 9.1112-12.875 12.75-0.43765 0-1.682 0.69781-2.7812 1.5625-2.1919 1.7242-3.7807 1.9957-4.5312 0.78125-0.26721-0.43235 0.15538-0.77925 0.9375-0.78125s2.9242-1.0179 4.7812-2.25c1.7024-1.1385 11.793-12.151 14.031-12.594zm-58.312 6.2812c0.6455 0.0574 1.2336 0.6653 2.8438 2.3125 1.2925 1.3222 2.1478 2.7341 1.9062 3.125-0.45144 0.73043 4.6004 4.4064 6.6562 4.8438 0.63257 0.13455 2.0594 1.045 3.1562 2.0312 1.0968 0.9863 2.8566 1.9979 3.9375 2.2188 1.0809 0.22079 3.0779 0.6715 4.4375 1.0312 1.3596 0.35981 2.9189 0.40233 3.4688 0.0625 0.54987-0.33982 1.7856-0.33541 2.75 0.0312 0.96441 0.36668 1.9683 0.4692 2.2188 0.21875 0.25046-0.25045 0.68898 0.14595 0.96875 0.875 0.65551 1.7082 0.25642 2.06-2.9375 2.5625-1.4459 0.2275-2.8151 0.67136-3.0312 0.96875-0.21618 0.29739-1.7921 0.64831-3.5 0.78125l-3.0938 0.21875 1.0312-1.25c1.1938-1.4385 1.9731-1.6654 1.1562-0.34375-0.30187 0.48834-0.2282 0.74055 0.15625 0.5625 3.5492-1.6438 5.0064-2.6456 5.4062-3.6875 0.39487-1.029 0.23587-1.0247-1 0.0937-1.5669 1.418-6.8982 1.9147-6.0625 0.5625 0.28583-0.46249-0.56337-0.8023-2.0938-0.8125-4.0913-0.0272-8.4532-2.4807-14.406-8.125-3.0264-2.8694-5.7695-5.2182-6.0938-5.2188-0.52015-0.001-0.69153-0.47822-0.59375-1.0312 0.0145-0.082 0.03683-0.16571 0.0625-0.25 0.15458-0.6721 0.78136-1.0461 1.1875-1.375 0.66849-0.25652 1.0814-0.44069 1.4688-0.40625zm54.719 2.7188c0.4835-0.0208 0.52762 0.41884-0.0625 1.5312-0.43234 0.2672-0.78125 0.0771-0.78125-0.40625 0-0.48337-0.38194-0.62917-0.84375-0.34375-0.71147 2.8465-1.7788 3.4118-4.8438 5.4688-3.9467 3.5484-4.6497 3.944-5.5625 3.0312-0.09469-0.4271 9.9986-9.1911 12.094-9.2812zm-47.719 2.3125c0.61908-0.0437 1.3281 0.0662 1.9062 0.40625 0.73951 0.43497 5.1045 2.1383 9.6875 3.75s8.4834 3.2552 8.6562 3.6875c1.2854 3.2155-8.4389 0.57648-15.188-4.125-2.0151-1.4038-4.1757-2.3381-4.8125-2.0938-0.63682 0.24437-1.3676 0.10401-1.625-0.3125-0.43829-0.70918 0.3432-1.2396 1.375-1.3125zm34.524 0.88c0.89154 0.0643-0.40793 0.74794-3.875 2.2812-5.2538 2.3235-11.958 2.4707-17.75 0.40625-6.0732-2.1648-5.376-2.5045 4.125-1.9688 4.9593 0.27964 11.045 0.18827 13.531-0.21875 2.112-0.34581 3.4338-0.53859 3.9688-0.5zm-5.875 7.375c0.46996 0 1.0793 0.39649 1.375 0.875 0.37593 0.60828 0.77975 0.55818 1.3125-0.1875 0.57319-0.80229 0.62745-0.72575 0.28125 0.34375-0.45116 1.3938 2.7363 1.5837 4.8438 0.28125 0.38172-0.23592 1.2761 0.22231 1.9688 1.0312l1.25 1.4688c2.2536-1.2947 4.4091-2.541 2.0938-0.53125l1.1562-0.34375c2.5818-0.7868 5.0826-1.3109 4.125-0.875-0.68674 0.31262-0.77365 0.74405-0.25 1.375 3.105 3.7413-2.7617 7.0287-17.625 9.9062-10.459 2.025-27.921 0.88117-30.312-2-1.087-1.3098 0.44172-3.8159 1.8125-2.9688 1.4342 0.88639 21.508 0.48053 23.281-0.46875l1.6875-0.875v2.3438c0 3.2846 1.5318 3.907 1.6875 0.6875l0.125-2.5938 0.34375 2.5625c0.3628 2.9235 1.7812 3.498 1.7812 0.71875 0-2.5446 2.0046-4.0804 6.875-5.2188 0.51929-0.17726 1.8698-0.9617 3.1875-1.7188l-1.1562 0.4375c-1.8225 0.69936-2.3721 0.52832-1.0625-0.34375 0.83298-0.55469 0.23913-0.65466-2.0312-0.3125l-3.2188 0.5-2.1875-2.0312c-1.215-1.13-1.815-2.07-1.345-2.07zm20.875 8c0.20335-0.0199 0.31839 0.0136 0.28125 0.125-0.44387 1.3316-10.018 5.8065-15.5 7.25-5.9652 1.5707-19.682 2.0286-28.094 0.90625-8.0381-1.0725-7.1324-1.9634 1.1562-1.125 14.166 1.4329 28.07-0.57858 38.062-5.5312 1.9141-0.94869 3.4837-1.5652 4.0938-1.625zm-35.594 17.438c-0.14071 0.0702 0.52648 0.36294 2.0625 0.9375 1.8184 0.68017 6.9556 1.8783 11.406 2.6562 8.9766 1.569 12.143 1.8934 11.375 1.125-0.42242-0.42242-8.5627-1.9997-23.719-4.5938-0.65739-0.11252-1.0406-0.16711-1.125-0.125zm-24.375 20.281c0.22917-0.0265 1.1887 0.82705 2.3125 2.0625 1.2844 1.412 2.3438 2.1834 2.3438 1.7188 0-0.46468 0.4071-0.58974 0.90625-0.28125 0.56679 0.3503 0.699 0.1998 0.34375-0.375-0.31285-0.5062-0.91003-0.7175-1.3125-0.46875-0.40247 0.24874-0.71875 0.12618-0.71875-0.28125 0.72416-0.84957 1.9636-1.8635 2.625-0.75-0.28283 0.45763 0.09935 1.2994 0.84375 1.8438l1.3438 0.96875-1.625 0.53125c-0.90081 0.28591-1.4355 0.84877-1.1875 1.25 0.24797 0.40121 0.28512 0.71875 0.09375 0.71875-0.57721 0-6.0249-6.2426-6-6.875 0.0016-0.0404-0.0015-0.0587 0.03125-0.0625zm7.7812 5.375c1.2597 0 4.0473 3.1337 3.5312 3.9688-0.25747 0.41658 0.18664 0.744 0.96875 0.75 0.91855 0.008 1.0914 0.21748 0.5 0.59375-0.67993 0.43256-0.63838 0.99556 0.1875 2.125 0.61166 0.83648 1.125 1.2268 1.125 0.875 0-0.35174 0.48726-0.22207 1.0938 0.28125 0.84684 0.70282 1.201 0.68608 1.5-0.0937 0.21421-0.55848 0.32915-0.22278 0.28125 0.75-0.1629 3.3056-2.5888 1.8499-6.3125-3.75-2.0124-3.0264-3.3108-5.5-2.875-5.5zm48.906 0.875c-1.3878 0.002-2.5 0.19712-2.5 0.625 0 0.39631 0.42833 0.90693 0.96875 1.125 1.4243 0.57464 3.0935 0.58516 5.2812 0l1.91-0.54-1.5312-0.59375c-1.0886-0.42603-2.7372-0.62736-4.125-0.625z"/>
  </g>
  <metadata>
    <rdf:RDF>
      <cc:Work>
        <dc:format>image/svg+xml</dc:format>
        <dc:type rdf:resource="http://purl.org/dc/dcmitype/StillImage"/>
        <cc:license rdf:resource="http://creativecommons.org/licenses/publicdomain/"/>
        <dc:publisher>
          <cc:Agent rdf:about="http://openclipart.org/">
            <dc:title>Openclipart</dc:title>
          </cc:Agent>
        </dc:publisher>
        <dc:title>Martin Luther</dc:title>
        <dc:date>2010-12-19T16:04:46</dc:date>
        <dc:description>Martin Luther (build on  portrait on a german stamp from 1952  http://commons.wikimedia.org/wiki/File:DBP_1952_149_Luther.jpg and from 1933 http://www.german-reich.de/german/images/big/p224g.jpg  )</dc:description>
        <dc:source>http://openclipart.org/detail/101383/martin-luther-by-salvor</dc:source>
        <dc:creator>
          <cc:Agent>
            <dc:title>salvor</dc:title>
          </cc:Agent>
        </dc:creator>
        <dc:subject>
          <rdf:Bag>
            <rdf:li>Martin Luther</rdf:li>
            <rdf:li>black and white</rdf:li>
            <rdf:li>christianity.</rdf:li>
            <rdf:li>clip art</rdf:li>
            <rdf:li>clipart</rdf:li>
            <rdf:li>protestant</rdf:li>
            <rdf:li>religion</rdf:li>
            <rdf:li>woodcut</rdf:li>
          </rdf:Bag>
        </dc:subject>
      </cc:Work>
      <cc:License rdf:about="http://creativecommons.org/licenses/publicdomain/">
        <cc:permits rdf:resource="http://creativecommons.org/ns#Reproduction"/>
        <cc:permits rdf:resource="http://creativecommons.org/ns#Distribution"/>
        <cc:permits rdf:resource="http://creativecommons.org/ns#DerivativeWorks"/>
      </cc:License>
    </rdf:RDF>
  </metadata>
</svg>
